<svg width="21" height="23" viewBox="0 0 21 23" fill="none" xmlns="http://www.w3.org/2000/svg">
<path d="M7.11417 17.179C9.32852 17.4417 11.5662 17.4417 13.7805 17.179C15.9542 16.9216 18.09 16.4086 20.1435 15.6507C18.4044 13.7243 17.4435 11.2202 17.4473 8.625V7.75C17.4473 5.89348 16.7098 4.11301 15.3971 2.80025C14.0843 1.4875 12.3038 0.75 10.4473 0.75C8.59082 0.75 6.81034 1.4875 5.49759 2.80025C4.18483 4.11301 3.44733 5.89348 3.44733 7.75V8.625C3.45085 11.2204 2.48948 13.7244 0.75 15.6507C2.77183 16.3973 4.90333 16.9165 7.11417 17.179ZM13.7805 17.179C13.9486 17.7038 13.9904 18.261 13.9025 18.805C13.8146 19.3491 13.5995 19.8647 13.2746 20.3098C12.9498 20.755 12.5244 21.1172 12.0331 21.3669C11.5418 21.6166 10.9984 21.7467 10.4473 21.7467C9.89623 21.7467 9.35291 21.6166 8.86161 21.3669C8.37031 21.1172 7.94492 20.755 7.62006 20.3098C7.2952 19.8647 7.08006 19.3491 6.99215 18.805C6.90424 18.261 6.94605 17.7038 7.11417 17.179" stroke="#111827" stroke-width="1.5" stroke-linecap="round" stroke-linejoin="round"/>
</svg>
